solid OpenSCAD_Model
  facet normal -1 0 0
    outer loop
      vertex 200 0 0
      vertex 200 180 20
      vertex 200 180 0
    endloop
  endfacet
  facet normal -1 -0 0
    outer loop
      vertex 200 180 20
      vertex 200 0 0
      vertex 200 0 20
    endloop
  endfacet
  facet normal 0 0 1
    outer loop
      vertex 375 5 20
      vertex 380 180 20
      vertex 375 176 20
    endloop
  endfacet
  facet normal 0 0 1
    outer loop
      vertex 380 180 20
      vertex 205 176 20
      vertex 375 176 20
    endloop
  endfacet
  facet normal 0 0 1
    outer loop
      vertex 205 176 20
      vertex 200 180 20
      vertex 205 5 20
    endloop
  endfacet
  facet normal -0 0 1
    outer loop
      vertex 200 180 20
      vertex 205 176 20
      vertex 380 180 20
    endloop
  endfacet
  facet normal 0 0 1
    outer loop
      vertex 380 180 20
      vertex 375 5 20
      vertex 380 0 20
    endloop
  endfacet
  facet normal -0 0 1
    outer loop
      vertex 205 5 20
      vertex 380 0 20
      vertex 375 5 20
    endloop
  endfacet
  facet normal 0 0 1
    outer loop
      vertex 205 5 20
      vertex 200 0 20
      vertex 380 0 20
    endloop
  endfacet
  facet normal 0 0 1
    outer loop
      vertex 200 0 20
      vertex 205 5 20
      vertex 200 180 20
    endloop
  endfacet
  facet normal 1 -0 0
    outer loop
      vertex 380 0 20
      vertex 380 180 0
      vertex 380 180 20
    endloop
  endfacet
  facet normal 1 0 0
    outer loop
      vertex 380 180 0
      vertex 380 0 20
      vertex 380 0 0
    endloop
  endfacet
  facet normal 0 1 -0
    outer loop
      vertex 380 180 0
      vertex 200 180 20
      vertex 380 180 20
    endloop
  endfacet
  facet normal 0 1 0
    outer loop
      vertex 200 180 20
      vertex 380 180 0
      vertex 200 180 0
    endloop
  endfacet
  facet normal 0 0 -1
    outer loop
      vertex 380 0 0
      vertex 270 30 0
      vertex 380 180 0
    endloop
  endfacet
  facet normal 0 0 -1
    outer loop
      vertex 200 0 0
      vertex 270 30 0
      vertex 380 0 0
    endloop
  endfacet
  facet normal -0 0 -1
    outer loop
      vertex 230 30 0
      vertex 200 0 0
      vertex 230 150 0
    endloop
  endfacet
  facet normal -0 0 -1
    outer loop
      vertex 270 30 0
      vertex 200 0 0
      vertex 230 30 0
    endloop
  endfacet
  facet normal 0 0 -1
    outer loop
      vertex 270 150 0
      vertex 380 180 0
      vertex 270 30 0
    endloop
  endfacet
  facet normal 0 0 -1
    outer loop
      vertex 200 180 0
      vertex 270 150 0
      vertex 230 150 0
    endloop
  endfacet
  facet normal 0 0 -1
    outer loop
      vertex 270 150 0
      vertex 200 180 0
      vertex 380 180 0
    endloop
  endfacet
  facet normal 0 0 -1
    outer loop
      vertex 200 180 0
      vertex 230 150 0
      vertex 200 0 0
    endloop
  endfacet
  facet normal 0 -1 0
    outer loop
      vertex 200 0 0
      vertex 380 0 20
      vertex 200 0 20
    endloop
  endfacet
  facet normal 0 -1 -0
    outer loop
      vertex 380 0 20
      vertex 200 0 0
      vertex 380 0 0
    endloop
  endfacet
  facet normal 1 -0 0
    outer loop
      vertex 205 5 20
      vertex 205 176 5
      vertex 205 176 20
    endloop
  endfacet
  facet normal 1 0 0
    outer loop
      vertex 205 176 5
      vertex 205 5 20
      vertex 205 5 5
    endloop
  endfacet
  facet normal -1 0 0
    outer loop
      vertex 375 5 5
      vertex 375 176 20
      vertex 375 176 5
    endloop
  endfacet
  facet normal -1 -0 0
    outer loop
      vertex 375 176 20
      vertex 375 5 5
      vertex 375 5 20
    endloop
  endfacet
  facet normal 0 0 1
    outer loop
      vertex 375 176 5
      vertex 270 150 5
      vertex 375 5 5
    endloop
  endfacet
  facet normal -0 0 1
    outer loop
      vertex 205 176 5
      vertex 270 150 5
      vertex 375 176 5
    endloop
  endfacet
  facet normal 0 0 1
    outer loop
      vertex 205 5 5
      vertex 230 150 5
      vertex 205 176 5
    endloop
  endfacet
  facet normal 0 0 1
    outer loop
      vertex 270 150 5
      vertex 205 176 5
      vertex 230 150 5
    endloop
  endfacet
  facet normal -0 0 1
    outer loop
      vertex 270 30 5
      vertex 375 5 5
      vertex 270 150 5
    endloop
  endfacet
  facet normal 0 0 1
    outer loop
      vertex 205 5 5
      vertex 270 30 5
      vertex 230 30 5
    endloop
  endfacet
  facet normal 0 0 1
    outer loop
      vertex 270 30 5
      vertex 205 5 5
      vertex 375 5 5
    endloop
  endfacet
  facet normal 0 0 1
    outer loop
      vertex 230 150 5
      vertex 205 5 5
      vertex 230 30 5
    endloop
  endfacet
  facet normal 0 1 -0
    outer loop
      vertex 375 5 5
      vertex 205 5 20
      vertex 375 5 20
    endloop
  endfacet
  facet normal 0 1 0
    outer loop
      vertex 205 5 20
      vertex 375 5 5
      vertex 205 5 5
    endloop
  endfacet
  facet normal 0 -1 0
    outer loop
      vertex 205 176 5
      vertex 375 176 20
      vertex 205 176 20
    endloop
  endfacet
  facet normal 0 -1 -0
    outer loop
      vertex 375 176 20
      vertex 205 176 5
      vertex 375 176 5
    endloop
  endfacet
  facet normal 1 -0 0
    outer loop
      vertex 230 30 5
      vertex 230 150 0
      vertex 230 150 5
    endloop
  endfacet
  facet normal 1 0 0
    outer loop
      vertex 230 150 0
      vertex 230 30 5
      vertex 230 30 0
    endloop
  endfacet
  facet normal -1 0 0
    outer loop
      vertex 270 30 0
      vertex 270 150 5
      vertex 270 150 0
    endloop
  endfacet
  facet normal -1 -0 0
    outer loop
      vertex 270 150 5
      vertex 270 30 0
      vertex 270 30 5
    endloop
  endfacet
  facet normal 0 -1 0
    outer loop
      vertex 230 150 0
      vertex 270 150 5
      vertex 230 150 5
    endloop
  endfacet
  facet normal 0 -1 -0
    outer loop
      vertex 270 150 5
      vertex 230 150 0
      vertex 270 150 0
    endloop
  endfacet
  facet normal 0 1 -0
    outer loop
      vertex 270 30 0
      vertex 230 30 5
      vertex 270 30 5
    endloop
  endfacet
  facet normal 0 1 0
    outer loop
      vertex 230 30 5
      vertex 270 30 0
      vertex 230 30 0
    endloop
  endfacet
  facet normal -1 0 0
    outer loop
      vertex 0 0 0
      vertex 0 170 170
      vertex 0 170 0
    endloop
  endfacet
  facet normal -1 -0 0
    outer loop
      vertex 0 170 170
      vertex 0 0 0
      vertex 0 0 170
    endloop
  endfacet
  facet normal 0 0 1
    outer loop
      vertex 170 170 170
      vertex 165 165 170
      vertex 170 0 170
    endloop
  endfacet
  facet normal 0 0 1
    outer loop
      vertex 170 170 170
      vertex 5 165 170
      vertex 165 165 170
    endloop
  endfacet
  facet normal 0 0 1
    outer loop
      vertex 5 165 170
      vertex 0 170 170
      vertex 5 5 170
    endloop
  endfacet
  facet normal -0 0 1
    outer loop
      vertex 0 170 170
      vertex 5 165 170
      vertex 170 170 170
    endloop
  endfacet
  facet normal -0 0 1
    outer loop
      vertex 165 5 170
      vertex 170 0 170
      vertex 165 165 170
    endloop
  endfacet
  facet normal -0 0 1
    outer loop
      vertex 5 5 170
      vertex 170 0 170
      vertex 165 5 170
    endloop
  endfacet
  facet normal 0 0 1
    outer loop
      vertex 5 5 170
      vertex 0 0 170
      vertex 170 0 170
    endloop
  endfacet
  facet normal 0 0 1
    outer loop
      vertex 0 0 170
      vertex 5 5 170
      vertex 0 170 170
    endloop
  endfacet
  facet normal 1 -0 0
    outer loop
      vertex 170 0 170
      vertex 170 170 0
      vertex 170 170 170
    endloop
  endfacet
  facet normal 1 0 0
    outer loop
      vertex 170 170 0
      vertex 170 0 170
      vertex 170 0 0
    endloop
  endfacet
  facet normal 0 1 -0
    outer loop
      vertex 22.7779 170 139.157
      vertex 0 170 170
      vertex 170 170 170
    endloop
  endfacet
  facet normal 0 1 0
    outer loop
      vertex 0 170 170
      vertex 22.7779 170 139.157
      vertex 20.9755 170 139.904
    endloop
  endfacet
  facet normal 0 1 0
    outer loop
      vertex 170 170 170
      vertex 24.1573 170 137.778
      vertex 22.7779 170 139.157
    endloop
  endfacet
  facet normal 0 1 0
    outer loop
      vertex 170 170 170
      vertex 24.9039 170 135.975
      vertex 24.1573 170 137.778
    endloop
  endfacet
  facet normal 0 1 0
    outer loop
      vertex 170 170 170
      vertex 24.9039 170 134.025
      vertex 24.9039 170 135.975
    endloop
  endfacet
  facet normal 0 1 0
    outer loop
      vertex 170 170 170
      vertex 24.1573 170 132.222
      vertex 24.9039 170 134.025
    endloop
  endfacet
  facet normal 0 1 -0
    outer loop
      vertex 170 170 0
      vertex 24.1573 170 132.222
      vertex 170 170 170
    endloop
  endfacet
  facet normal 0 1 0
    outer loop
      vertex 24.1573 170 132.222
      vertex 170 170 0
      vertex 22.7779 170 130.843
    endloop
  endfacet
  facet normal 0 1 0
    outer loop
      vertex 22.7779 170 130.843
      vertex 0 170 0
      vertex 20.9755 170 130.096
    endloop
  endfacet
  facet normal 0 1 0
    outer loop
      vertex 0 170 0
      vertex 22.7779 170 130.843
      vertex 170 170 0
    endloop
  endfacet
  facet normal 0 1 -0
    outer loop
      vertex 19.0245 170 139.904
      vertex 0 170 170
      vertex 20.9755 170 139.904
    endloop
  endfacet
  facet normal 0 1 -0
    outer loop
      vertex 17.2221 170 139.157
      vertex 0 170 170
      vertex 19.0245 170 139.904
    endloop
  endfacet
  facet normal 0 1 -0
    outer loop
      vertex 15.8427 170 137.778
      vertex 0 170 170
      vertex 17.2221 170 139.157
    endloop
  endfacet
  facet normal 0 1 -0
    outer loop
      vertex 15.0961 170 135.975
      vertex 0 170 170
      vertex 15.8427 170 137.778
    endloop
  endfacet
  facet normal 0 1 -0
    outer loop
      vertex 15.0961 170 134.025
      vertex 0 170 170
      vertex 15.0961 170 135.975
    endloop
  endfacet
  facet normal 0 1 0
    outer loop
      vertex 0 170 0
      vertex 15.0961 170 134.025
      vertex 15.8427 170 132.222
    endloop
  endfacet
  facet normal 0 1 0
    outer loop
      vertex 20.9755 170 130.096
      vertex 0 170 0
      vertex 19.0245 170 130.096
    endloop
  endfacet
  facet normal 0 1 0
    outer loop
      vertex 15.0961 170 134.025
      vertex 0 170 0
      vertex 0 170 170
    endloop
  endfacet
  facet normal 0 1 0
    outer loop
      vertex 17.2221 170 130.843
      vertex 0 170 0
      vertex 15.8427 170 132.222
    endloop
  endfacet
  facet normal 0 1 0
    outer loop
      vertex 19.0245 170 130.096
      vertex 0 170 0
      vertex 17.2221 170 130.843
    endloop
  endfacet
  facet normal 0 0 -1
    outer loop
      vertex 0 0 0
      vertex 170 170 0
      vertex 170 0 0
    endloop
  endfacet
  facet normal -0 0 -1
    outer loop
      vertex 170 170 0
      vertex 0 0 0
      vertex 0 170 0
    endloop
  endfacet
  facet normal 0 -1 0
    outer loop
      vertex 20.9755 0 139.904
      vertex 0 0 170
      vertex 19.0245 0 139.904
    endloop
  endfacet
  facet normal 0 -1 0
    outer loop
      vertex 0 0 170
      vertex 17.2221 0 139.157
      vertex 19.0245 0 139.904
    endloop
  endfacet
  facet normal 0 -1 0
    outer loop
      vertex 0 0 170
      vertex 15.8427 0 137.778
      vertex 17.2221 0 139.157
    endloop
  endfacet
  facet normal 0 -1 0
    outer loop
      vertex 0 0 170
      vertex 15.0961 0 135.975
      vertex 15.8427 0 137.778
    endloop
  endfacet
  facet normal 0 -1 0
    outer loop
      vertex 0 0 170
      vertex 15.0961 0 134.025
      vertex 15.0961 0 135.975
    endloop
  endfacet
  facet normal 0 -1 0
    outer loop
      vertex 0 0 0
      vertex 15.0961 0 134.025
      vertex 0 0 170
    endloop
  endfacet
  facet normal 0 -1 -0
    outer loop
      vertex 19.0245 0 130.096
      vertex 0 0 0
      vertex 20.9755 0 130.096
    endloop
  endfacet
  facet normal 0 -1 -0
    outer loop
      vertex 17.2221 0 130.843
      vertex 0 0 0
      vertex 19.0245 0 130.096
    endloop
  endfacet
  facet normal 0 -1 -0
    outer loop
      vertex 15.8427 0 132.222
      vertex 0 0 0
      vertex 17.2221 0 130.843
    endloop
  endfacet
  facet normal 0 -1 -0
    outer loop
      vertex 15.0961 0 134.025
      vertex 0 0 0
      vertex 15.8427 0 132.222
    endloop
  endfacet
  facet normal 0 -1 0
    outer loop
      vertex 22.7779 0 139.157
      vertex 0 0 170
      vertex 20.9755 0 139.904
    endloop
  endfacet
  facet normal 0 -1 0
    outer loop
      vertex 0 0 170
      vertex 22.7779 0 139.157
      vertex 170 0 170
    endloop
  endfacet
  facet normal 0 -1 0
    outer loop
      vertex 24.1573 0 137.778
      vertex 170 0 170
      vertex 22.7779 0 139.157
    endloop
  endfacet
  facet normal 0 -1 0
    outer loop
      vertex 24.9039 0 135.975
      vertex 170 0 170
      vertex 24.1573 0 137.778
    endloop
  endfacet
  facet normal 0 -1 0
    outer loop
      vertex 24.9039 0 134.025
      vertex 170 0 170
      vertex 24.9039 0 135.975
    endloop
  endfacet
  facet normal 0 -1 0
    outer loop
      vertex 24.1573 0 132.222
      vertex 170 0 170
      vertex 24.9039 0 134.025
    endloop
  endfacet
  facet normal 0 -1 0
    outer loop
      vertex 170 0 0
      vertex 24.1573 0 132.222
      vertex 22.7779 0 130.843
    endloop
  endfacet
  facet normal 0 -1 0
    outer loop
      vertex 0 0 0
      vertex 22.7779 0 130.843
      vertex 20.9755 0 130.096
    endloop
  endfacet
  facet normal 0 -1 -0
    outer loop
      vertex 22.7779 0 130.843
      vertex 0 0 0
      vertex 170 0 0
    endloop
  endfacet
  facet normal 0 -1 0
    outer loop
      vertex 24.1573 0 132.222
      vertex 170 0 0
      vertex 170 0 170
    endloop
  endfacet
  facet normal 1 -0 0
    outer loop
      vertex 5 5 170
      vertex 5 165 5
      vertex 5 165 170
    endloop
  endfacet
  facet normal 1 0 0
    outer loop
      vertex 5 165 5
      vertex 5 5 170
      vertex 5 5 5
    endloop
  endfacet
  facet normal -1 0 0
    outer loop
      vertex 165 5 5
      vertex 165 165 170
      vertex 165 165 5
    endloop
  endfacet
  facet normal -1 -0 0
    outer loop
      vertex 165 165 170
      vertex 165 5 5
      vertex 165 5 170
    endloop
  endfacet
  facet normal 0 -1 0
    outer loop
      vertex 5 165 5
      vertex 165 165 170
      vertex 5 165 170
    endloop
  endfacet
  facet normal 0 -1 -0
    outer loop
      vertex 165 165 170
      vertex 5 165 5
      vertex 165 165 5
    endloop
  endfacet
  facet normal -0 0 1
    outer loop
      vertex 5 165 5
      vertex 165 5 5
      vertex 165 165 5
    endloop
  endfacet
  facet normal 0 0 1
    outer loop
      vertex 165 5 5
      vertex 5 165 5
      vertex 5 5 5
    endloop
  endfacet
  facet normal 0 1 -0
    outer loop
      vertex 165 5 5
      vertex 5 5 170
      vertex 165 5 170
    endloop
  endfacet
  facet normal 0 1 0
    outer loop
      vertex 5 5 170
      vertex 165 5 5
      vertex 5 5 5
    endloop
  endfacet
  facet normal -0.381581 -0.0759017 -0.921214
    outer loop
      vertex 22.5664 1.06304 139.157
      vertex 22.7779 0 139.157
      vertex 20.9755 0 139.904
    endloop
  endfacet
  facet normal -0.908664 -0.180745 -0.37638
    outer loop
      vertex 24.5306 1.87665 135.975
      vertex 24.1573 0 137.778
      vertex 23.8409 1.59095 137.778
    endloop
  endfacet
  facet normal -0.139282 -0.700216 -0.700213
    outer loop
      vertex 20 4.15735 137.778
      vertex 21.5909 3.84089 137.778
      vertex 20 2.77785 139.157
    endloop
  endfacet
  facet normal 0.139282 -0.700216 0.700213
    outer loop
      vertex 20 2.77785 130.843
      vertex 20 4.15735 132.222
      vertex 18.409 3.84089 132.222
    endloop
  endfacet
  facet normal -0.139282 -0.700216 -0.700213
    outer loop
      vertex 21.5909 3.84089 137.778
      vertex 21.063 2.5664 139.157
      vertex 20 2.77785 139.157
    endloop
  endfacet
  facet normal -0.19509 -0.980785 0
    outer loop
      vertex 20 4.90393 134.025
      vertex 21.8767 4.53064 135.975
      vertex 20 4.90393 135.975
    endloop
  endfacet
  facet normal -0.19509 -0.980785 -0
    outer loop
      vertex 21.8767 4.53064 135.975
      vertex 20 4.90393 134.025
      vertex 21.8767 4.53064 134.025
    endloop
  endfacet
  facet normal -0.700215 -0.139282 -0.700214
    outer loop
      vertex 23.8409 1.59095 137.778
      vertex 22.7779 0 139.157
      vertex 22.5664 1.06304 139.157
    endloop
  endfacet
  facet normal 0.908663 -0.180745 0.376381
    outer loop
      vertex 15.8427 0 132.222
      vertex 16.1591 1.59095 132.222
      vertex 15.4694 1.87665 134.025
    endloop
  endfacet
  facet normal 0.39664 -0.593614 0.700213
    outer loop
      vertex 18.937 2.5664 130.843
      vertex 18.409 3.84089 132.222
      vertex 18.0358 1.96424 130.843
    endloop
  endfacet
  facet normal -0.700215 -0.139282 -0.700214
    outer loop
      vertex 23.8409 1.59095 137.778
      vertex 24.1573 0 137.778
      vertex 22.7779 0 139.157
    endloop
  endfacet
  facet normal 0.0759011 -0.381581 -0.921214
    outer loop
      vertex 20 0.975451 139.904
      vertex 19.6267 0.901199 139.904
      vertex 18.937 2.5664 139.157
    endloop
  endfacet
  facet normal -0.514716 -0.770328 -0.376381
    outer loop
      vertex 21.8767 4.53064 135.975
      vertex 22.9397 2.93969 137.778
      vertex 21.5909 3.84089 137.778
    endloop
  endfacet
  facet normal 0.180744 -0.908663 0.376381
    outer loop
      vertex 18.409 3.84089 132.222
      vertex 20 4.15735 132.222
      vertex 18.1233 4.53064 134.025
    endloop
  endfacet
  facet normal -0.593614 -0.396639 -0.700214
    outer loop
      vertex 23.8409 1.59095 137.778
      vertex 22.5664 1.06304 139.157
      vertex 21.9642 1.96424 139.157
    endloop
  endfacet
  facet normal 0.216148 -0.323489 -0.921214
    outer loop
      vertex 18.937 2.5664 139.157
      vertex 19.6267 0.901199 139.904
      vertex 18.0358 1.96424 139.157
    endloop
  endfacet
  facet normal -0.770328 -0.514717 -0.37638
    outer loop
      vertex 23.4676 3.4676 135.975
      vertex 24.5306 1.87665 135.975
      vertex 22.9397 2.93969 137.778
    endloop
  endfacet
  facet normal -0.514717 -0.770327 -0.37638
    outer loop
      vertex 23.4676 3.4676 135.975
      vertex 22.9397 2.93969 137.778
      vertex 21.8767 4.53064 135.975
    endloop
  endfacet
  facet normal 0.19509 -0.980785 0
    outer loop
      vertex 18.1233 4.53064 134.025
      vertex 20 4.90393 135.975
      vertex 18.1233 4.53064 135.975
    endloop
  endfacet
  facet normal 0.19509 -0.980785 0
    outer loop
      vertex 20 4.90393 135.975
      vertex 18.1233 4.53064 134.025
      vertex 20 4.90393 134.025
    endloop
  endfacet
  facet normal -0.180744 -0.908663 -0.376381
    outer loop
      vertex 20 4.90393 135.975
      vertex 21.8767 4.53064 135.975
      vertex 20 4.15735 137.778
    endloop
  endfacet
  facet normal 0.980785 -0.19509 0
    outer loop
      vertex 15.0961 0 135.975
      vertex 15.4694 1.87665 134.025
      vertex 15.4694 1.87665 135.975
    endloop
  endfacet
  facet normal 0.980785 -0.19509 0
    outer loop
      vertex 15.4694 1.87665 134.025
      vertex 15.0961 0 135.975
      vertex 15.0961 0 134.025
    endloop
  endfacet
  facet normal 0.55557 -0.83147 0
    outer loop
      vertex 16.5324 3.4676 134.025
      vertex 18.1233 4.53064 135.975
      vertex 16.5324 3.4676 135.975
    endloop
  endfacet
  facet normal 0.55557 -0.83147 0
    outer loop
      vertex 18.1233 4.53064 135.975
      vertex 16.5324 3.4676 134.025
      vertex 18.1233 4.53064 134.025
    endloop
  endfacet
  facet normal 0.908663 -0.180744 0.376381
    outer loop
      vertex 15.8427 0 132.222
      vertex 15.4694 1.87665 134.025
      vertex 15.0961 0 134.025
    endloop
  endfacet
  facet normal -0.139282 -0.700216 0.700213
    outer loop
      vertex 21.5909 3.84089 132.222
      vertex 20 4.15735 132.222
      vertex 20 2.77785 130.843
    endloop
  endfacet
  facet normal 0.908663 -0.180744 -0.376381
    outer loop
      vertex 15.4694 1.87665 135.975
      vertex 15.8427 0 137.778
      vertex 15.0961 0 135.975
    endloop
  endfacet
  facet normal -0.216149 -0.323488 -0.921214
    outer loop
      vertex 21.9642 1.96424 139.157
      vertex 20.6897 0.689748 139.904
      vertex 20.3733 0.901199 139.904
    endloop
  endfacet
  facet normal -0.323488 -0.216149 -0.921214
    outer loop
      vertex 21.9642 1.96424 139.157
      vertex 20.9012 0.373289 139.904
      vertex 20.6897 0.689748 139.904
    endloop
  endfacet
  facet normal 0.39664 -0.593614 -0.700213
    outer loop
      vertex 18.409 3.84089 137.778
      vertex 18.937 2.5664 139.157
      vertex 18.0358 1.96424 139.157
    endloop
  endfacet
  facet normal -0.908663 -0.180745 0.376381
    outer loop
      vertex 24.9039 0 134.025
      vertex 24.5306 1.87665 134.025
      vertex 24.1573 0 132.222
    endloop
  endfacet
  facet normal -0.908664 -0.180745 0.37638
    outer loop
      vertex 24.1573 0 132.222
      vertex 24.5306 1.87665 134.025
      vertex 23.8409 1.59095 132.222
    endloop
  endfacet
  facet normal 0.770328 -0.514716 0.376381
    outer loop
      vertex 16.1591 1.59095 132.222
      vertex 17.0603 2.93969 132.222
      vertex 15.4694 1.87665 134.025
    endloop
  endfacet
  facet normal 0.514717 -0.770328 0.376381
    outer loop
      vertex 18.409 3.84089 132.222
      vertex 18.1233 4.53064 134.025
      vertex 17.0603 2.93969 132.222
    endloop
  endfacet
  facet normal 0.180744 -0.908663 0.376381
    outer loop
      vertex 20 4.15735 132.222
      vertex 20 4.90393 134.025
      vertex 18.1233 4.53064 134.025
    endloop
  endfacet
  facet normal -0.908663 -0.180745 -0.376381
    outer loop
      vertex 24.5306 1.87665 135.975
      vertex 24.9039 0 135.975
      vertex 24.1573 0 137.778
    endloop
  endfacet
  facet normal -0.700215 -0.139282 0.700214
    outer loop
      vertex 22.7779 0 130.843
      vertex 23.8409 1.59095 132.222
      vertex 22.5664 1.06304 130.843
    endloop
  endfacet
  facet normal -0.39664 -0.593614 0.700213
    outer loop
      vertex 21.9642 1.96424 130.843
      vertex 21.5909 3.84089 132.222
      vertex 21.063 2.5664 130.843
    endloop
  endfacet
  facet normal -0.770328 -0.514717 0.37638
    outer loop
      vertex 24.5306 1.87665 134.025
      vertex 23.4676 3.4676 134.025
      vertex 22.9397 2.93969 132.222
    endloop
  endfacet
  facet normal 0.38158 -0.0759024 0.921214
    outer loop
      vertex 19.0245 0 130.096
      vertex 19.0988 0.373289 130.096
      vertex 17.4336 1.06304 130.843
    endloop
  endfacet
  facet normal 0.216148 -0.323489 0.921214
    outer loop
      vertex 19.6267 0.901199 130.096
      vertex 18.937 2.5664 130.843
      vertex 18.0358 1.96424 130.843
    endloop
  endfacet
  facet normal 0.770328 -0.514717 0.376381
    outer loop
      vertex 17.0603 2.93969 132.222
      vertex 16.5324 3.4676 134.025
      vertex 15.4694 1.87665 134.025
    endloop
  endfacet
  facet normal 0.700215 -0.139282 0.700214
    outer loop
      vertex 17.2221 0 130.843
      vertex 16.1591 1.59095 132.222
      vertex 15.8427 0 132.222
    endloop
  endfacet
  facet normal -0.323489 -0.216148 -0.921214
    outer loop
      vertex 21.9642 1.96424 139.157
      vertex 22.5664 1.06304 139.157
      vertex 20.9012 0.373289 139.904
    endloop
  endfacet
  facet normal -0.381581 -0.0759024 -0.921214
    outer loop
      vertex 22.5664 1.06304 139.157
      vertex 20.9755 0 139.904
      vertex 20.9012 0.373289 139.904
    endloop
  endfacet
  facet normal -0.593614 -0.39664 -0.700214
    outer loop
      vertex 22.9397 2.93969 137.778
      vertex 23.8409 1.59095 137.778
      vertex 21.9642 1.96424 139.157
    endloop
  endfacet
  facet normal -0.770328 -0.514716 -0.37638
    outer loop
      vertex 24.5306 1.87665 135.975
      vertex 23.8409 1.59095 137.778
      vertex 22.9397 2.93969 137.778
    endloop
  endfacet
  facet normal 0.770328 -0.514717 -0.376381
    outer loop
      vertex 16.5324 3.4676 135.975
      vertex 17.0603 2.93969 137.778
      vertex 15.4694 1.87665 135.975
    endloop
  endfacet
  facet normal -0.180745 -0.908663 -0.376381
    outer loop
      vertex 21.8767 4.53064 135.975
      vertex 21.5909 3.84089 137.778
      vertex 20 4.15735 137.778
    endloop
  endfacet
  facet normal 0.514717 -0.770328 -0.376381
    outer loop
      vertex 18.1233 4.53064 135.975
      vertex 17.0603 2.93969 137.778
      vertex 16.5324 3.4676 135.975
    endloop
  endfacet
  facet normal 0.180744 -0.908663 -0.376381
    outer loop
      vertex 20 4.90393 135.975
      vertex 20 4.15735 137.778
      vertex 18.1233 4.53064 135.975
    endloop
  endfacet
  facet normal 0.908663 -0.180745 -0.376381
    outer loop
      vertex 16.1591 1.59095 137.778
      vertex 15.8427 0 137.778
      vertex 15.4694 1.87665 135.975
    endloop
  endfacet
  facet normal 0.700215 -0.139282 -0.700214
    outer loop
      vertex 16.1591 1.59095 137.778
      vertex 17.2221 0 139.157
      vertex 15.8427 0 137.778
    endloop
  endfacet
  facet normal -0.180744 -0.908663 0.376381
    outer loop
      vertex 21.8767 4.53064 134.025
      vertex 20 4.90393 134.025
      vertex 20 4.15735 132.222
    endloop
  endfacet
  facet normal -0.770328 -0.514716 0.37638
    outer loop
      vertex 23.8409 1.59095 132.222
      vertex 24.5306 1.87665 134.025
      vertex 22.9397 2.93969 132.222
    endloop
  endfacet
  facet normal -0.555571 -0.831469 0
    outer loop
      vertex 21.8767 4.53064 134.025
      vertex 23.4676 3.4676 135.975
      vertex 21.8767 4.53064 135.975
    endloop
  endfacet
  facet normal -0.555571 -0.831469 -0
    outer loop
      vertex 23.4676 3.4676 135.975
      vertex 21.8767 4.53064 134.025
      vertex 23.4676 3.4676 134.025
    endloop
  endfacet
  facet normal -0.514717 -0.770327 0.37638
    outer loop
      vertex 22.9397 2.93969 132.222
      vertex 23.4676 3.4676 134.025
      vertex 21.8767 4.53064 134.025
    endloop
  endfacet
  facet normal 0 0 1
    outer loop
      vertex 20.6897 0.689748 130.096
      vertex 20.9755 0 130.096
      vertex 20.9012 0.373289 130.096
    endloop
  endfacet
  facet normal 0 0 1
    outer loop
      vertex 20.3733 0.901199 130.096
      vertex 20.9755 0 130.096
      vertex 20.6897 0.689748 130.096
    endloop
  endfacet
  facet normal 0 0 1
    outer loop
      vertex 20 0.975451 130.096
      vertex 20.9755 0 130.096
      vertex 20.3733 0.901199 130.096
    endloop
  endfacet
  facet normal -0 0 1
    outer loop
      vertex 19.6267 0.901199 130.096
      vertex 20.9755 0 130.096
      vertex 20 0.975451 130.096
    endloop
  endfacet
  facet normal -0 0 1
    outer loop
      vertex 19.3103 0.689748 130.096
      vertex 20.9755 0 130.096
      vertex 19.6267 0.901199 130.096
    endloop
  endfacet
  facet normal -0 0 1
    outer loop
      vertex 19.0988 0.373289 130.096
      vertex 20.9755 0 130.096
      vertex 19.3103 0.689748 130.096
    endloop
  endfacet
  facet normal 0 0 1
    outer loop
      vertex 20.9755 0 130.096
      vertex 19.0988 0.373289 130.096
      vertex 19.0245 0 130.096
    endloop
  endfacet
  facet normal 0.381581 -0.075901 0.921214
    outer loop
      vertex 19.0245 0 130.096
      vertex 17.4336 1.06304 130.843
      vertex 17.2221 0 130.843
    endloop
  endfacet
  facet normal 0.700216 -0.139281 0.700213
    outer loop
      vertex 17.2221 0 130.843
      vertex 17.4336 1.06304 130.843
      vertex 16.1591 1.59095 132.222
    endloop
  endfacet
  facet normal 0.0759011 -0.381581 0.921214
    outer loop
      vertex 19.6267 0.901199 130.096
      vertex 20 0.975451 130.096
      vertex 18.937 2.5664 130.843
    endloop
  endfacet
  facet normal 0.83147 -0.55557 0
    outer loop
      vertex 15.4694 1.87665 135.975
      vertex 16.5324 3.4676 134.025
      vertex 16.5324 3.4676 135.975
    endloop
  endfacet
  facet normal 0.83147 -0.55557 0
    outer loop
      vertex 16.5324 3.4676 134.025
      vertex 15.4694 1.87665 135.975
      vertex 15.4694 1.87665 134.025
    endloop
  endfacet
  facet normal 0.514717 -0.770328 0.376381
    outer loop
      vertex 17.0603 2.93969 132.222
      vertex 18.1233 4.53064 134.025
      vertex 16.5324 3.4676 134.025
    endloop
  endfacet
  facet normal 0.39664 -0.593614 0.700213
    outer loop
      vertex 18.0358 1.96424 130.843
      vertex 18.409 3.84089 132.222
      vertex 17.0603 2.93969 132.222
    endloop
  endfacet
  facet normal 0.593614 -0.39664 0.700214
    outer loop
      vertex 18.0358 1.96424 130.843
      vertex 17.0603 2.93969 132.222
      vertex 16.1591 1.59095 132.222
    endloop
  endfacet
  facet normal 0.381581 -0.075901 -0.921214
    outer loop
      vertex 17.4336 1.06304 139.157
      vertex 19.0245 0 139.904
      vertex 17.2221 0 139.157
    endloop
  endfacet
  facet normal 0.139282 -0.700216 -0.700213
    outer loop
      vertex 20 4.15735 137.778
      vertex 20 2.77785 139.157
      vertex 18.409 3.84089 137.778
    endloop
  endfacet
  facet normal 0.139282 -0.700216 -0.700213
    outer loop
      vertex 20 2.77785 139.157
      vertex 18.937 2.5664 139.157
      vertex 18.409 3.84089 137.778
    endloop
  endfacet
  facet normal -0.39664 -0.593614 -0.700213
    outer loop
      vertex 21.5909 3.84089 137.778
      vertex 21.9642 1.96424 139.157
      vertex 21.063 2.5664 139.157
    endloop
  endfacet
  facet normal -0.39664 -0.593614 -0.700213
    outer loop
      vertex 22.9397 2.93969 137.778
      vertex 21.9642 1.96424 139.157
      vertex 21.5909 3.84089 137.778
    endloop
  endfacet
  facet normal 0.770328 -0.514716 -0.376381
    outer loop
      vertex 17.0603 2.93969 137.778
      vertex 16.1591 1.59095 137.778
      vertex 15.4694 1.87665 135.975
    endloop
  endfacet
  facet normal 0.39664 -0.593614 -0.700213
    outer loop
      vertex 18.409 3.84089 137.778
      vertex 18.0358 1.96424 139.157
      vertex 17.0603 2.93969 137.778
    endloop
  endfacet
  facet normal -0.83147 -0.55557 0
    outer loop
      vertex 24.5306 1.87665 134.025
      vertex 23.4676 3.4676 135.975
      vertex 23.4676 3.4676 134.025
    endloop
  endfacet
  facet normal -0.83147 -0.55557 0
    outer loop
      vertex 23.4676 3.4676 135.975
      vertex 24.5306 1.87665 134.025
      vertex 24.5306 1.87665 135.975
    endloop
  endfacet
  facet normal -0.980785 -0.195091 0
    outer loop
      vertex 24.9039 0 134.025
      vertex 24.5306 1.87665 135.975
      vertex 24.5306 1.87665 134.025
    endloop
  endfacet
  facet normal -0.980785 -0.195091 0
    outer loop
      vertex 24.5306 1.87665 135.975
      vertex 24.9039 0 134.025
      vertex 24.9039 0 135.975
    endloop
  endfacet
  facet normal -0.593614 -0.39664 0.700214
    outer loop
      vertex 23.8409 1.59095 132.222
      vertex 22.9397 2.93969 132.222
      vertex 21.9642 1.96424 130.843
    endloop
  endfacet
  facet normal -0.381581 -0.0759024 0.921214
    outer loop
      vertex 20.9755 0 130.096
      vertex 22.5664 1.06304 130.843
      vertex 20.9012 0.373289 130.096
    endloop
  endfacet
  facet normal -0.180745 -0.908663 0.376381
    outer loop
      vertex 21.5909 3.84089 132.222
      vertex 21.8767 4.53064 134.025
      vertex 20 4.15735 132.222
    endloop
  endfacet
  facet normal -0.514716 -0.770328 0.376381
    outer loop
      vertex 22.9397 2.93969 132.222
      vertex 21.8767 4.53064 134.025
      vertex 21.5909 3.84089 132.222
    endloop
  endfacet
  facet normal 0.593614 -0.396641 0.700213
    outer loop
      vertex 17.4336 1.06304 130.843
      vertex 18.0358 1.96424 130.843
      vertex 16.1591 1.59095 132.222
    endloop
  endfacet
  facet normal 0.323489 -0.216148 0.921214
    outer loop
      vertex 19.0988 0.373289 130.096
      vertex 18.0358 1.96424 130.843
      vertex 17.4336 1.06304 130.843
    endloop
  endfacet
  facet normal 0.139282 -0.700216 0.700213
    outer loop
      vertex 18.937 2.5664 130.843
      vertex 20 2.77785 130.843
      vertex 18.409 3.84089 132.222
    endloop
  endfacet
  facet normal 0.0759013 -0.381581 0.921214
    outer loop
      vertex 20 0.975451 130.096
      vertex 20 2.77785 130.843
      vertex 18.937 2.5664 130.843
    endloop
  endfacet
  facet normal -0.593614 -0.396639 0.700214
    outer loop
      vertex 22.5664 1.06304 130.843
      vertex 23.8409 1.59095 132.222
      vertex 21.9642 1.96424 130.843
    endloop
  endfacet
  facet normal 0.514717 -0.770328 -0.376381
    outer loop
      vertex 18.1233 4.53064 135.975
      vertex 18.409 3.84089 137.778
      vertex 17.0603 2.93969 137.778
    endloop
  endfacet
  facet normal 0.180744 -0.908663 -0.376381
    outer loop
      vertex 20 4.15735 137.778
      vertex 18.409 3.84089 137.778
      vertex 18.1233 4.53064 135.975
    endloop
  endfacet
  facet normal -0.381581 -0.0759017 0.921214
    outer loop
      vertex 22.7779 0 130.843
      vertex 22.5664 1.06304 130.843
      vertex 20.9755 0 130.096
    endloop
  endfacet
  facet normal -0.700215 -0.139282 0.700214
    outer loop
      vertex 24.1573 0 132.222
      vertex 23.8409 1.59095 132.222
      vertex 22.7779 0 130.843
    endloop
  endfacet
  facet normal 0.323489 -0.216148 0.921214
    outer loop
      vertex 19.0988 0.373289 130.096
      vertex 19.3103 0.689748 130.096
      vertex 18.0358 1.96424 130.843
    endloop
  endfacet
  facet normal 0.216149 -0.323488 0.921214
    outer loop
      vertex 19.3103 0.689748 130.096
      vertex 19.6267 0.901199 130.096
      vertex 18.0358 1.96424 130.843
    endloop
  endfacet
  facet normal -0.0759015 -0.381581 0.921214
    outer loop
      vertex 20.3733 0.901199 130.096
      vertex 21.063 2.5664 130.843
      vertex 20 0.975451 130.096
    endloop
  endfacet
  facet normal -0.216148 -0.323489 0.921214
    outer loop
      vertex 21.9642 1.96424 130.843
      vertex 21.063 2.5664 130.843
      vertex 20.3733 0.901199 130.096
    endloop
  endfacet
  facet normal -0.39664 -0.593614 0.700213
    outer loop
      vertex 21.9642 1.96424 130.843
      vertex 22.9397 2.93969 132.222
      vertex 21.5909 3.84089 132.222
    endloop
  endfacet
  facet normal 0.593614 -0.39664 -0.700214
    outer loop
      vertex 17.0603 2.93969 137.778
      vertex 18.0358 1.96424 139.157
      vertex 16.1591 1.59095 137.778
    endloop
  endfacet
  facet normal 0.216149 -0.323488 -0.921214
    outer loop
      vertex 19.6267 0.901199 139.904
      vertex 19.3103 0.689748 139.904
      vertex 18.0358 1.96424 139.157
    endloop
  endfacet
  facet normal -0.0759013 -0.381581 -0.921214
    outer loop
      vertex 20 2.77785 139.157
      vertex 21.063 2.5664 139.157
      vertex 20 0.975451 139.904
    endloop
  endfacet
  facet normal 0.0759013 -0.381581 -0.921214
    outer loop
      vertex 20 2.77785 139.157
      vertex 20 0.975451 139.904
      vertex 18.937 2.5664 139.157
    endloop
  endfacet
  facet normal -0.216149 -0.323488 0.921214
    outer loop
      vertex 20.6897 0.689748 130.096
      vertex 21.9642 1.96424 130.843
      vertex 20.3733 0.901199 130.096
    endloop
  endfacet
  facet normal -0.323489 -0.216148 0.921214
    outer loop
      vertex 22.5664 1.06304 130.843
      vertex 21.9642 1.96424 130.843
      vertex 20.9012 0.373289 130.096
    endloop
  endfacet
  facet normal -0.0759013 -0.381581 0.921214
    outer loop
      vertex 21.063 2.5664 130.843
      vertex 20 2.77785 130.843
      vertex 20 0.975451 130.096
    endloop
  endfacet
  facet normal -0.139282 -0.700216 0.700213
    outer loop
      vertex 21.063 2.5664 130.843
      vertex 21.5909 3.84089 132.222
      vertex 20 2.77785 130.843
    endloop
  endfacet
  facet normal 0.593614 -0.396641 -0.700213
    outer loop
      vertex 18.0358 1.96424 139.157
      vertex 17.4336 1.06304 139.157
      vertex 16.1591 1.59095 137.778
    endloop
  endfacet
  facet normal 0.700216 -0.139281 -0.700213
    outer loop
      vertex 17.4336 1.06304 139.157
      vertex 17.2221 0 139.157
      vertex 16.1591 1.59095 137.778
    endloop
  endfacet
  facet normal 0 0 -1
    outer loop
      vertex 20.9755 0 139.904
      vertex 20.6897 0.689748 139.904
      vertex 20.9012 0.373289 139.904
    endloop
  endfacet
  facet normal 0 0 -1
    outer loop
      vertex 20.9755 0 139.904
      vertex 20.3733 0.901199 139.904
      vertex 20.6897 0.689748 139.904
    endloop
  endfacet
  facet normal 0 0 -1
    outer loop
      vertex 20.9755 0 139.904
      vertex 20 0.975451 139.904
      vertex 20.3733 0.901199 139.904
    endloop
  endfacet
  facet normal 0 0 -1
    outer loop
      vertex 20.9755 0 139.904
      vertex 19.6267 0.901199 139.904
      vertex 20 0.975451 139.904
    endloop
  endfacet
  facet normal 0 0 -1
    outer loop
      vertex 20.9755 0 139.904
      vertex 19.3103 0.689748 139.904
      vertex 19.6267 0.901199 139.904
    endloop
  endfacet
  facet normal 0 0 -1
    outer loop
      vertex 20.9755 0 139.904
      vertex 19.0988 0.373289 139.904
      vertex 19.3103 0.689748 139.904
    endloop
  endfacet
  facet normal 0 -0 -1
    outer loop
      vertex 19.0988 0.373289 139.904
      vertex 20.9755 0 139.904
      vertex 19.0245 0 139.904
    endloop
  endfacet
  facet normal 0.323489 -0.216148 -0.921214
    outer loop
      vertex 19.3103 0.689748 139.904
      vertex 19.0988 0.373289 139.904
      vertex 18.0358 1.96424 139.157
    endloop
  endfacet
  facet normal -0.216148 -0.323489 -0.921214
    outer loop
      vertex 21.063 2.5664 139.157
      vertex 21.9642 1.96424 139.157
      vertex 20.3733 0.901199 139.904
    endloop
  endfacet
  facet normal -0.0759015 -0.381581 -0.921214
    outer loop
      vertex 21.063 2.5664 139.157
      vertex 20.3733 0.901199 139.904
      vertex 20 0.975451 139.904
    endloop
  endfacet
  facet normal -0.323488 -0.216149 0.921214
    outer loop
      vertex 20.9012 0.373289 130.096
      vertex 21.9642 1.96424 130.843
      vertex 20.6897 0.689748 130.096
    endloop
  endfacet
  facet normal 0.323489 -0.216148 -0.921214
    outer loop
      vertex 18.0358 1.96424 139.157
      vertex 19.0988 0.373289 139.904
      vertex 17.4336 1.06304 139.157
    endloop
  endfacet
  facet normal 0.38158 -0.0759024 -0.921214
    outer loop
      vertex 19.0988 0.373289 139.904
      vertex 19.0245 0 139.904
      vertex 17.4336 1.06304 139.157
    endloop
  endfacet
  facet normal 0.593615 0.396636 -0.700215
    outer loop
      vertex 18.0358 168.036 139.157
      vertex 17.0603 167.06 137.778
      vertex 16.1591 168.409 137.778
    endloop
  endfacet
  facet normal -0.514716 0.770329 -0.376379
    outer loop
      vertex 22.9397 167.06 137.778
      vertex 23.4676 166.532 135.975
      vertex 21.8767 165.469 135.975
    endloop
  endfacet
  facet normal -0.514709 0.77033 -0.376385
    outer loop
      vertex 22.9397 167.06 137.778
      vertex 21.8767 165.469 135.975
      vertex 21.5909 166.159 137.778
    endloop
  endfacet
  facet normal -0.980785 0.195092 0
    outer loop
      vertex 24.5306 168.123 134.025
      vertex 24.9039 170 135.975
      vertex 24.9039 170 134.025
    endloop
  endfacet
  facet normal -0.980785 0.195092 0
    outer loop
      vertex 24.9039 170 135.975
      vertex 24.5306 168.123 134.025
      vertex 24.5306 168.123 135.975
    endloop
  endfacet
  facet normal -0.381581 0.0759019 0.921214
    outer loop
      vertex 22.5664 168.937 130.843
      vertex 22.7779 170 130.843
      vertex 20.9755 170 130.096
    endloop
  endfacet
  facet normal 0.908663 0.180745 -0.376381
    outer loop
      vertex 15.8427 170 137.778
      vertex 16.1591 168.409 137.778
      vertex 15.4694 168.123 135.975
    endloop
  endfacet
  facet normal 0.180748 0.908661 0.376385
    outer loop
      vertex 20 165.843 132.222
      vertex 18.409 166.159 132.222
      vertex 18.1233 165.469 134.025
    endloop
  endfacet
  facet normal 0.593614 0.396641 -0.700213
    outer loop
      vertex 17.4336 168.937 139.157
      vertex 18.0358 168.036 139.157
      vertex 16.1591 168.409 137.778
    endloop
  endfacet
  facet normal 0.593615 0.396636 0.700215
    outer loop
      vertex 17.0603 167.06 132.222
      vertex 18.0358 168.036 130.843
      vertex 16.1591 168.409 132.222
    endloop
  endfacet
  facet normal -0.831471 0.555568 0
    outer loop
      vertex 23.4676 166.532 134.025
      vertex 24.5306 168.123 135.975
      vertex 24.5306 168.123 134.025
    endloop
  endfacet
  facet normal -0.831471 0.555568 0
    outer loop
      vertex 24.5306 168.123 135.975
      vertex 23.4676 166.532 134.025
      vertex 23.4676 166.532 135.975
    endloop
  endfacet
  facet normal 0.396635 0.593615 0.700216
    outer loop
      vertex 18.409 166.159 132.222
      vertex 18.0358 168.036 130.843
      vertex 17.0603 167.06 132.222
    endloop
  endfacet
  facet normal -0.908663 0.180746 -0.376381
    outer loop
      vertex 24.9039 170 135.975
      vertex 24.5306 168.123 135.975
      vertex 24.1573 170 137.778
    endloop
  endfacet
  facet normal 0.980785 0.195091 0
    outer loop
      vertex 15.4694 168.123 135.975
      vertex 15.0961 170 134.025
      vertex 15.0961 170 135.975
    endloop
  endfacet
  facet normal 0.980785 0.195091 0
    outer loop
      vertex 15.0961 170 134.025
      vertex 15.4694 168.123 135.975
      vertex 15.4694 168.123 134.025
    endloop
  endfacet
  facet normal 0.180745 0.908662 -0.376382
    outer loop
      vertex 20 165.843 137.778
      vertex 20 165.096 135.975
      vertex 18.1233 165.469 135.975
    endloop
  endfacet
  facet normal -0.381581 0.0759019 -0.921214
    outer loop
      vertex 22.7779 170 139.157
      vertex 22.5664 168.937 139.157
      vertex 20.9755 170 139.904
    endloop
  endfacet
  facet normal -0.32349 0.216149 0.921214
    outer loop
      vertex 21.9642 168.036 130.843
      vertex 22.5664 168.937 130.843
      vertex 20.9012 169.627 130.096
    endloop
  endfacet
  facet normal -0.139285 0.700214 0.700214
    outer loop
      vertex 21.5909 166.159 132.222
      vertex 20 167.222 130.843
      vertex 20 165.843 132.222
    endloop
  endfacet
  facet normal 0.180745 0.908662 0.376382
    outer loop
      vertex 20 165.096 134.025
      vertex 20 165.843 132.222
      vertex 18.1233 165.469 134.025
    endloop
  endfacet
  facet normal -0.593614 0.39664 -0.700213
    outer loop
      vertex 22.5664 168.937 139.157
      vertex 23.8409 168.409 137.778
      vertex 21.9642 168.036 139.157
    endloop
  endfacet
  facet normal 0.323489 0.216149 -0.921214
    outer loop
      vertex 19.0988 169.627 139.904
      vertex 18.0358 168.036 139.157
      vertex 17.4336 168.937 139.157
    endloop
  endfacet
  facet normal -0.770329 0.514715 0.376379
    outer loop
      vertex 23.4676 166.532 134.025
      vertex 24.5306 168.123 134.025
      vertex 22.9397 167.06 132.222
    endloop
  endfacet
  facet normal -0.396647 0.593614 0.70021
    outer loop
      vertex 21.5909 166.159 132.222
      vertex 21.9642 168.036 130.843
      vertex 21.063 167.434 130.843
    endloop
  endfacet
  facet normal -0.381581 0.0759021 0.921214
    outer loop
      vertex 22.5664 168.937 130.843
      vertex 20.9755 170 130.096
      vertex 20.9012 169.627 130.096
    endloop
  endfacet
  facet normal 0.381581 0.0759012 0.921214
    outer loop
      vertex 17.4336 168.937 130.843
      vertex 19.0245 170 130.096
      vertex 17.2221 170 130.843
    endloop
  endfacet
  facet normal 0.555569 0.83147 -0
    outer loop
      vertex 18.1233 165.469 134.025
      vertex 16.5324 166.532 135.975
      vertex 18.1233 165.469 135.975
    endloop
  endfacet
  facet normal 0.555569 0.83147 0
    outer loop
      vertex 16.5324 166.532 135.975
      vertex 18.1233 165.469 134.025
      vertex 16.5324 166.532 134.025
    endloop
  endfacet
  facet normal 0.700216 0.139282 -0.700213
    outer loop
      vertex 17.2221 170 139.157
      vertex 17.4336 168.937 139.157
      vertex 16.1591 168.409 137.778
    endloop
  endfacet
  facet normal 0.700215 0.139282 -0.700213
    outer loop
      vertex 17.2221 170 139.157
      vertex 16.1591 168.409 137.778
      vertex 15.8427 170 137.778
    endloop
  endfacet
  facet normal 0.381581 0.075902 0.921214
    outer loop
      vertex 19.0988 169.627 130.096
      vertex 19.0245 170 130.096
      vertex 17.4336 168.937 130.843
    endloop
  endfacet
  facet normal 0.139285 0.700214 0.700214
    outer loop
      vertex 20 165.843 132.222
      vertex 20 167.222 130.843
      vertex 18.409 166.159 132.222
    endloop
  endfacet
  facet normal 0.381581 0.075902 -0.921214
    outer loop
      vertex 19.0245 170 139.904
      vertex 19.0988 169.627 139.904
      vertex 17.4336 168.937 139.157
    endloop
  endfacet
  facet normal 0.216152 0.323485 -0.921214
    outer loop
      vertex 19.3103 169.31 139.904
      vertex 19.6267 169.099 139.904
      vertex 18.0358 168.036 139.157
    endloop
  endfacet
  facet normal -0.77033 0.514712 -0.376381
    outer loop
      vertex 23.8409 168.409 137.778
      vertex 24.5306 168.123 135.975
      vertex 22.9397 167.06 137.778
    endloop
  endfacet
  facet normal -0.700215 0.139283 -0.700214
    outer loop
      vertex 22.7779 170 139.157
      vertex 23.8409 168.409 137.778
      vertex 22.5664 168.937 139.157
    endloop
  endfacet
  facet normal 0.831471 0.555568 0
    outer loop
      vertex 16.5324 166.532 135.975
      vertex 15.4694 168.123 134.025
      vertex 15.4694 168.123 135.975
    endloop
  endfacet
  facet normal 0.831471 0.555568 0
    outer loop
      vertex 15.4694 168.123 134.025
      vertex 16.5324 166.532 135.975
      vertex 16.5324 166.532 134.025
    endloop
  endfacet
  facet normal 0.77033 0.514712 -0.376382
    outer loop
      vertex 16.1591 168.409 137.778
      vertex 17.0603 167.06 137.778
      vertex 15.4694 168.123 135.975
    endloop
  endfacet
  facet normal 0.396635 0.593615 -0.700216
    outer loop
      vertex 18.0358 168.036 139.157
      vertex 18.409 166.159 137.778
      vertex 17.0603 167.06 137.778
    endloop
  endfacet
  facet normal 0.396647 0.593614 -0.70021
    outer loop
      vertex 18.937 167.434 139.157
      vertex 18.409 166.159 137.778
      vertex 18.0358 168.036 139.157
    endloop
  endfacet
  facet normal -0.700215 0.139282 -0.700213
    outer loop
      vertex 24.1573 170 137.778
      vertex 23.8409 168.409 137.778
      vertex 22.7779 170 139.157
    endloop
  endfacet
  facet normal -0.908663 0.180745 -0.37638
    outer loop
      vertex 24.1573 170 137.778
      vertex 24.5306 168.123 135.975
      vertex 23.8409 168.409 137.778
    endloop
  endfacet
  facet normal -0.514709 0.77033 0.376385
    outer loop
      vertex 21.8767 165.469 134.025
      vertex 22.9397 167.06 132.222
      vertex 21.5909 166.159 132.222
    endloop
  endfacet
  facet normal 0.216151 0.323487 0.921214
    outer loop
      vertex 18.937 167.434 130.843
      vertex 19.6267 169.099 130.096
      vertex 18.0358 168.036 130.843
    endloop
  endfacet
  facet normal -0.139276 0.700221 0.700209
    outer loop
      vertex 21.5909 166.159 132.222
      vertex 21.063 167.434 130.843
      vertex 20 167.222 130.843
    endloop
  endfacet
  facet normal 0.908663 0.180745 -0.376381
    outer loop
      vertex 15.8427 170 137.778
      vertex 15.4694 168.123 135.975
      vertex 15.0961 170 135.975
    endloop
  endfacet
  facet normal 0 0 1
    outer loop
      vertex 20.9755 170 130.096
      vertex 20.6897 169.31 130.096
      vertex 20.9012 169.627 130.096
    endloop
  endfacet
  facet normal 0 0 1
    outer loop
      vertex 20.9755 170 130.096
      vertex 20.3733 169.099 130.096
      vertex 20.6897 169.31 130.096
    endloop
  endfacet
  facet normal 0 0 1
    outer loop
      vertex 20.9755 170 130.096
      vertex 20 169.025 130.096
      vertex 20.3733 169.099 130.096
    endloop
  endfacet
  facet normal 0 0 1
    outer loop
      vertex 20.9755 170 130.096
      vertex 19.6267 169.099 130.096
      vertex 20 169.025 130.096
    endloop
  endfacet
  facet normal 0 0 1
    outer loop
      vertex 20.9755 170 130.096
      vertex 19.3103 169.31 130.096
      vertex 19.6267 169.099 130.096
    endloop
  endfacet
  facet normal 0 0 1
    outer loop
      vertex 20.9755 170 130.096
      vertex 19.0988 169.627 130.096
      vertex 19.3103 169.31 130.096
    endloop
  endfacet
  facet normal 0 -0 1
    outer loop
      vertex 19.0988 169.627 130.096
      vertex 20.9755 170 130.096
      vertex 19.0245 170 130.096
    endloop
  endfacet
  facet normal 0.381581 0.0759012 -0.921214
    outer loop
      vertex 19.0245 170 139.904
      vertex 17.4336 168.937 139.157
      vertex 17.2221 170 139.157
    endloop
  endfacet
  facet normal 0.770329 0.514715 -0.37638
    outer loop
      vertex 17.0603 167.06 137.778
      vertex 16.5324 166.532 135.975
      vertex 15.4694 168.123 135.975
    endloop
  endfacet
  facet normal -0.770329 0.514715 -0.376379
    outer loop
      vertex 24.5306 168.123 135.975
      vertex 23.4676 166.532 135.975
      vertex 22.9397 167.06 137.778
    endloop
  endfacet
  facet normal -0.593615 0.396636 -0.700215
    outer loop
      vertex 23.8409 168.409 137.778
      vertex 22.9397 167.06 137.778
      vertex 21.9642 168.036 139.157
    endloop
  endfacet
  facet normal 0.514715 0.770329 -0.37638
    outer loop
      vertex 17.0603 167.06 137.778
      vertex 18.1233 165.469 135.975
      vertex 16.5324 166.532 135.975
    endloop
  endfacet
  facet normal 0.0758975 0.381581 -0.921214
    outer loop
      vertex 20 169.025 139.904
      vertex 20 167.222 139.157
      vertex 18.937 167.434 139.157
    endloop
  endfacet
  facet normal 0.700216 0.139282 0.700213
    outer loop
      vertex 17.4336 168.937 130.843
      vertex 17.2221 170 130.843
      vertex 16.1591 168.409 132.222
    endloop
  endfacet
  facet normal -0.180745 0.908662 0.376382
    outer loop
      vertex 21.8767 165.469 134.025
      vertex 20 165.843 132.222
      vertex 20 165.096 134.025
    endloop
  endfacet
  facet normal -0.180748 0.908661 0.376385
    outer loop
      vertex 21.8767 165.469 134.025
      vertex 21.5909 166.159 132.222
      vertex 20 165.843 132.222
    endloop
  endfacet
  facet normal -0.77033 0.514712 0.376381
    outer loop
      vertex 24.5306 168.123 134.025
      vertex 23.8409 168.409 132.222
      vertex 22.9397 167.06 132.222
    endloop
  endfacet
  facet normal -0.908663 0.180746 0.376381
    outer loop
      vertex 24.5306 168.123 134.025
      vertex 24.9039 170 134.025
      vertex 24.1573 170 132.222
    endloop
  endfacet
  facet normal 0.0758975 0.381581 0.921214
    outer loop
      vertex 20 167.222 130.843
      vertex 20 169.025 130.096
      vertex 18.937 167.434 130.843
    endloop
  endfacet
  facet normal -0.323485 0.216152 0.921214
    outer loop
      vertex 21.9642 168.036 130.843
      vertex 20.9012 169.627 130.096
      vertex 20.6897 169.31 130.096
    endloop
  endfacet
  facet normal -0.908663 0.180745 0.37638
    outer loop
      vertex 24.5306 168.123 134.025
      vertex 24.1573 170 132.222
      vertex 23.8409 168.409 132.222
    endloop
  endfacet
  facet normal -0.396634 0.593616 0.700216
    outer loop
      vertex 22.9397 167.06 132.222
      vertex 21.9642 168.036 130.843
      vertex 21.5909 166.159 132.222
    endloop
  endfacet
  facet normal -0.593615 0.396636 0.700215
    outer loop
      vertex 22.9397 167.06 132.222
      vertex 23.8409 168.409 132.222
      vertex 21.9642 168.036 130.843
    endloop
  endfacet
  facet normal -0.593614 0.39664 0.700213
    outer loop
      vertex 23.8409 168.409 132.222
      vertex 22.5664 168.937 130.843
      vertex 21.9642 168.036 130.843
    endloop
  endfacet
  facet normal 0.908663 0.180745 0.376381
    outer loop
      vertex 15.4694 168.123 134.025
      vertex 15.8427 170 132.222
      vertex 15.0961 170 134.025
    endloop
  endfacet
  facet normal 0.770329 0.514715 0.37638
    outer loop
      vertex 16.5324 166.532 134.025
      vertex 17.0603 167.06 132.222
      vertex 15.4694 168.123 134.025
    endloop
  endfacet
  facet normal -0.700215 0.139282 0.700213
    outer loop
      vertex 23.8409 168.409 132.222
      vertex 24.1573 170 132.222
      vertex 22.7779 170 130.843
    endloop
  endfacet
  facet normal -0.700215 0.139283 0.700214
    outer loop
      vertex 23.8409 168.409 132.222
      vertex 22.7779 170 130.843
      vertex 22.5664 168.937 130.843
    endloop
  endfacet
  facet normal 0.51471 0.77033 -0.376385
    outer loop
      vertex 18.409 166.159 137.778
      vertex 18.1233 165.469 135.975
      vertex 17.0603 167.06 137.778
    endloop
  endfacet
  facet normal -0.180745 0.908662 -0.376382
    outer loop
      vertex 20 165.843 137.778
      vertex 21.8767 165.469 135.975
      vertex 20 165.096 135.975
    endloop
  endfacet
  facet normal 0.323486 0.216151 -0.921214
    outer loop
      vertex 19.0988 169.627 139.904
      vertex 19.3103 169.31 139.904
      vertex 18.0358 168.036 139.157
    endloop
  endfacet
  facet normal -0.216152 0.323485 -0.921214
    outer loop
      vertex 20.6897 169.31 139.904
      vertex 21.9642 168.036 139.157
      vertex 20.3733 169.099 139.904
    endloop
  endfacet
  facet normal -0.216151 0.323487 -0.921214
    outer loop
      vertex 21.9642 168.036 139.157
      vertex 21.063 167.434 139.157
      vertex 20.3733 169.099 139.904
    endloop
  endfacet
  facet normal -0.381581 0.0759021 -0.921214
    outer loop
      vertex 20.9755 170 139.904
      vertex 22.5664 168.937 139.157
      vertex 20.9012 169.627 139.904
    endloop
  endfacet
  facet normal 0.593614 0.396641 0.700213
    outer loop
      vertex 18.0358 168.036 130.843
      vertex 17.4336 168.937 130.843
      vertex 16.1591 168.409 132.222
    endloop
  endfacet
  facet normal 0.77033 0.514712 0.376382
    outer loop
      vertex 17.0603 167.06 132.222
      vertex 16.1591 168.409 132.222
      vertex 15.4694 168.123 134.025
    endloop
  endfacet
  facet normal -0.514716 0.770329 0.376379
    outer loop
      vertex 23.4676 166.532 134.025
      vertex 22.9397 167.06 132.222
      vertex 21.8767 165.469 134.025
    endloop
  endfacet
  facet normal -0.555569 0.83147 0
    outer loop
      vertex 23.4676 166.532 134.025
      vertex 21.8767 165.469 135.975
      vertex 23.4676 166.532 135.975
    endloop
  endfacet
  facet normal -0.555569 0.83147 0
    outer loop
      vertex 21.8767 165.469 135.975
      vertex 23.4676 166.532 134.025
      vertex 21.8767 165.469 134.025
    endloop
  endfacet
  facet normal 0.396647 0.593614 0.70021
    outer loop
      vertex 18.409 166.159 132.222
      vertex 18.937 167.434 130.843
      vertex 18.0358 168.036 130.843
    endloop
  endfacet
  facet normal 0.139276 0.700221 0.700209
    outer loop
      vertex 20 167.222 130.843
      vertex 18.937 167.434 130.843
      vertex 18.409 166.159 132.222
    endloop
  endfacet
  facet normal 0.0758982 0.381581 0.921214
    outer loop
      vertex 20 169.025 130.096
      vertex 19.6267 169.099 130.096
      vertex 18.937 167.434 130.843
    endloop
  endfacet
  facet normal -0.396634 0.593616 -0.700216
    outer loop
      vertex 21.9642 168.036 139.157
      vertex 22.9397 167.06 137.778
      vertex 21.5909 166.159 137.778
    endloop
  endfacet
  facet normal -0.396647 0.593614 -0.70021
    outer loop
      vertex 21.9642 168.036 139.157
      vertex 21.5909 166.159 137.778
      vertex 21.063 167.434 139.157
    endloop
  endfacet
  facet normal 0.180748 0.908661 -0.376385
    outer loop
      vertex 18.409 166.159 137.778
      vertex 20 165.843 137.778
      vertex 18.1233 165.469 135.975
    endloop
  endfacet
  facet normal -0.0758985 0.381581 -0.921214
    outer loop
      vertex 20.3733 169.099 139.904
      vertex 21.063 167.434 139.157
      vertex 20 169.025 139.904
    endloop
  endfacet
  facet normal -0.195091 0.980785 0
    outer loop
      vertex 21.8767 165.469 134.025
      vertex 20 165.096 135.975
      vertex 21.8767 165.469 135.975
    endloop
  endfacet
  facet normal -0.195091 0.980785 0
    outer loop
      vertex 20 165.096 135.975
      vertex 21.8767 165.469 134.025
      vertex 20 165.096 134.025
    endloop
  endfacet
  facet normal 0.0758982 0.381581 -0.921214
    outer loop
      vertex 19.6267 169.099 139.904
      vertex 20 169.025 139.904
      vertex 18.937 167.434 139.157
    endloop
  endfacet
  facet normal 0.216151 0.323487 -0.921214
    outer loop
      vertex 19.6267 169.099 139.904
      vertex 18.937 167.434 139.157
      vertex 18.0358 168.036 139.157
    endloop
  endfacet
  facet normal 0.908663 0.180745 0.376381
    outer loop
      vertex 16.1591 168.409 132.222
      vertex 15.8427 170 132.222
      vertex 15.4694 168.123 134.025
    endloop
  endfacet
  facet normal 0.700215 0.139282 0.700213
    outer loop
      vertex 16.1591 168.409 132.222
      vertex 17.2221 170 130.843
      vertex 15.8427 170 132.222
    endloop
  endfacet
  facet normal 0.195091 0.980785 -0
    outer loop
      vertex 20 165.096 134.025
      vertex 18.1233 165.469 135.975
      vertex 20 165.096 135.975
    endloop
  endfacet
  facet normal 0.195091 0.980785 0
    outer loop
      vertex 18.1233 165.469 135.975
      vertex 20 165.096 134.025
      vertex 18.1233 165.469 134.025
    endloop
  endfacet
  facet normal -0.216151 0.323487 0.921214
    outer loop
      vertex 21.063 167.434 130.843
      vertex 21.9642 168.036 130.843
      vertex 20.3733 169.099 130.096
    endloop
  endfacet
  facet normal -0.0758975 0.381581 0.921214
    outer loop
      vertex 21.063 167.434 130.843
      vertex 20 169.025 130.096
      vertex 20 167.222 130.843
    endloop
  endfacet
  facet normal 0.323486 0.216151 0.921214
    outer loop
      vertex 19.3103 169.31 130.096
      vertex 19.0988 169.627 130.096
      vertex 18.0358 168.036 130.843
    endloop
  endfacet
  facet normal 0.323489 0.216149 0.921214
    outer loop
      vertex 18.0358 168.036 130.843
      vertex 19.0988 169.627 130.096
      vertex 17.4336 168.937 130.843
    endloop
  endfacet
  facet normal -0.32349 0.216149 -0.921214
    outer loop
      vertex 22.5664 168.937 139.157
      vertex 21.9642 168.036 139.157
      vertex 20.9012 169.627 139.904
    endloop
  endfacet
  facet normal -0.323485 0.216152 -0.921214
    outer loop
      vertex 20.9012 169.627 139.904
      vertex 21.9642 168.036 139.157
      vertex 20.6897 169.31 139.904
    endloop
  endfacet
  facet normal 0.51471 0.77033 0.376385
    outer loop
      vertex 18.1233 165.469 134.025
      vertex 18.409 166.159 132.222
      vertex 17.0603 167.06 132.222
    endloop
  endfacet
  facet normal 0.514715 0.770329 0.37638
    outer loop
      vertex 18.1233 165.469 134.025
      vertex 17.0603 167.06 132.222
      vertex 16.5324 166.532 134.025
    endloop
  endfacet
  facet normal -0.0758985 0.381581 0.921214
    outer loop
      vertex 21.063 167.434 130.843
      vertex 20.3733 169.099 130.096
      vertex 20 169.025 130.096
    endloop
  endfacet
  facet normal 0.216152 0.323485 0.921214
    outer loop
      vertex 19.6267 169.099 130.096
      vertex 19.3103 169.31 130.096
      vertex 18.0358 168.036 130.843
    endloop
  endfacet
  facet normal 0 0 -1
    outer loop
      vertex 20.6897 169.31 139.904
      vertex 20.9755 170 139.904
      vertex 20.9012 169.627 139.904
    endloop
  endfacet
  facet normal 0 0 -1
    outer loop
      vertex 20.3733 169.099 139.904
      vertex 20.9755 170 139.904
      vertex 20.6897 169.31 139.904
    endloop
  endfacet
  facet normal 0 0 -1
    outer loop
      vertex 20 169.025 139.904
      vertex 20.9755 170 139.904
      vertex 20.3733 169.099 139.904
    endloop
  endfacet
  facet normal 0 0 -1
    outer loop
      vertex 19.6267 169.099 139.904
      vertex 20.9755 170 139.904
      vertex 20 169.025 139.904
    endloop
  endfacet
  facet normal 0 0 -1
    outer loop
      vertex 19.3103 169.31 139.904
      vertex 20.9755 170 139.904
      vertex 19.6267 169.099 139.904
    endloop
  endfacet
  facet normal 0 0 -1
    outer loop
      vertex 19.0988 169.627 139.904
      vertex 20.9755 170 139.904
      vertex 19.3103 169.31 139.904
    endloop
  endfacet
  facet normal -0 0 -1
    outer loop
      vertex 20.9755 170 139.904
      vertex 19.0988 169.627 139.904
      vertex 19.0245 170 139.904
    endloop
  endfacet
  facet normal -0.139285 0.700214 -0.700214
    outer loop
      vertex 20 167.222 139.157
      vertex 21.5909 166.159 137.778
      vertex 20 165.843 137.778
    endloop
  endfacet
  facet normal -0.139276 0.700221 -0.700209
    outer loop
      vertex 21.063 167.434 139.157
      vertex 21.5909 166.159 137.778
      vertex 20 167.222 139.157
    endloop
  endfacet
  facet normal -0.216152 0.323485 0.921214
    outer loop
      vertex 21.9642 168.036 130.843
      vertex 20.6897 169.31 130.096
      vertex 20.3733 169.099 130.096
    endloop
  endfacet
  facet normal -0.0758975 0.381581 -0.921214
    outer loop
      vertex 20 169.025 139.904
      vertex 21.063 167.434 139.157
      vertex 20 167.222 139.157
    endloop
  endfacet
  facet normal -0.180748 0.908661 -0.376385
    outer loop
      vertex 21.5909 166.159 137.778
      vertex 21.8767 165.469 135.975
      vertex 20 165.843 137.778
    endloop
  endfacet
  facet normal 0.139276 0.700221 -0.700209
    outer loop
      vertex 18.937 167.434 139.157
      vertex 20 167.222 139.157
      vertex 18.409 166.159 137.778
    endloop
  endfacet
  facet normal 0.139285 0.700214 -0.700214
    outer loop
      vertex 20 167.222 139.157
      vertex 20 165.843 137.778
      vertex 18.409 166.159 137.778
    endloop
  endfacet
endsolid OpenSCAD_Model
